<svg width="64" height="64" viewBox="0 0 64 64" fill="none" xmlns="http://www.w3.org/2000/svg">
<path fill-rule="evenodd" clip-rule="evenodd" d="M20.4428 58.6667H43.5538C52.5946 58.6667 58.6663 52.325 58.6663 42.8887V21.1113C58.6663 11.675 52.5946 5.33333 43.5565 5.33333H20.4428C11.4047 5.33333 5.33301 11.675 5.33301 21.1113V42.8887C5.33301 52.325 11.4047 58.6667 20.4428 58.6667ZM22.6633 29.3333C18.9869 29.3333 15.9997 26.3421 15.9997 22.6667C15.9997 18.9913 18.9869 16 22.6633 16C26.337 16 29.3269 18.9913 29.3269 22.6667C29.3269 26.3421 26.337 29.3333 22.6633 29.3333ZM52.8552 39.8239C53.7481 42.1135 53.2842 44.8655 52.3296 47.1331C51.198 49.8301 49.0313 51.872 46.3015 52.7637C45.0894 53.16 43.8184 53.3333 42.55 53.3333H20.0761C17.8397 53.3333 15.8607 52.7967 14.2384 51.7977C13.222 51.1703 13.0424 49.7227 13.7959 48.7843C15.0562 47.2157 16.3005 45.6416 17.5554 44.0537C19.9473 41.0155 21.559 40.1348 23.3502 40.9082C24.0769 41.2274 24.8063 41.7062 25.5571 42.2126C27.5576 43.5721 30.3383 45.4407 34.0013 43.4125C36.5079 42.0085 37.9618 39.6004 39.2279 37.5033L39.2491 37.4682C39.3388 37.3211 39.4277 37.174 39.5163 37.0272L39.5164 37.0272C39.9419 36.3232 40.3617 35.6286 40.8365 34.9886C41.4318 34.1878 43.6387 31.6835 46.4973 33.4668C48.318 34.5896 49.8492 36.1087 51.4876 37.7351C52.1124 38.3571 52.5575 39.0643 52.8552 39.8239Z" fill="#9FA5C0"/>
</svg>
